# xmcd
#
# Track frame offsets: 
#        151
#        16764
#        37434
#        52226
#        72220
#        87995
#        114322
#        130822
#        153480
#        174093
#        187027
#        202464
#        221987
#        240661
#
# Disc length: 3289 seconds
#
# Revision: 0
# Processed by: cddbd v1.5.2PL0 Copyright (c) Steve Scherf et al.
# Submitted via: ExactAudioCopyFreeDBPlugin 1.0
#
DISCID=d30cd70e
DTITLE=Various Artist - 35 Years' Tubes
DYEAR=2005
DGENRE=Vocal
TTITLE0=Carly Simon - Scarborough Fair
TTITLE1=Bobbie Gentry - The Look Of Love
TTITLE2=Nat King Cole - For All We Know
TTITLE3=Linda Ronstadt - Cry Me A River
TTITLE4=Allison Krauss - You're Just A Country Boy
TTITLE5=Louis Armstrong - Home
TTITLE6=Keren Ann - Not Going Anywhere
TTITLE7=Eva Cassidy - Over The Rainbow
TTITLE8=Sonya Kitchell - Loneliness
TTITLE9=Don Williams - I'm Getting Good At Missing You
TTITLE10=Debby Boone - You Are There
TTITLE11=Johnny Hartman - These Foolish Things
TTITLE12=Laura Fygi - The Summer Knows
TTITLE13=Susan Osborn - When You Wish Upon A Star
EXTD=
EXTT0=
EXTT1=
EXTT2=
EXTT3=
EXTT4=
EXTT5=
EXTT6=
EXTT7=
EXTT8=
EXTT9=
EXTT10=
EXTT11=
EXTT12=
EXTT13=
PLAYORDER=
